<?xml version="1.0" encoding="UTF-8"?>
<svg xmlns="http://www.w3.org/2000/svg" xmlns:xlink="http://www.w3.org/1999/xlink" width="50pt" height="50pt" viewBox="0 0 50 50" version="1.1">
<g id="surface4578279">
<path style=" stroke:none;fill-rule:nonzero;fill:rgb(0%,58.431373%,22.745098%);fill-opacity:1;" d="M 25 2 C 12.316406 2 2 12.316406 2 25 C 2 37.683594 12.316406 48 25 48 C 37.683594 48 48 37.683594 48 25 C 48 20.441406 46.660156 16.1875 44.363281 12.609375 L 42.992188 14.226562 C 44.890625 17.382812 46 21.058594 46 25 C 46 36.578125 36.578125 46 25 46 C 13.421875 46 4 36.578125 4 25 C 4 13.421875 13.421875 4 25 4 C 30.441406 4 35.394531 6.101562 39.128906 9.511719 L 40.4375 7.964844 C 36.351562 4.261719 30.933594 2 25 2 Z M 43.234375 7.753906 L 23.914062 30.554688 L 15.78125 22.96875 L 14.417969 24.429688 L 24.082031 33.449219 L 44.761719 9.046875 Z M 43.234375 7.753906 "/>
</g>
</svg>
