<?xml version="1.0" encoding="utf-8"?>
<!-- Generator: Adobe Illustrator 16.0.0, SVG Export Plug-In . SVG Version: 6.00 Build 0)  -->
<!DOCTYPE svg PUBLIC "-//W3C//DTD SVG 1.1//EN" "http://www.w3.org/Graphics/SVG/1.1/DTD/svg11.dtd">
<svg version="1.1" id="Capa_1" xmlns="http://www.w3.org/2000/svg" xmlns:xlink="http://www.w3.org/1999/xlink" x="0px" y="0px"
	 width="29.224px" height="40px" viewBox="0 0 29.224 40" enable-background="new 0 0 29.224 40" xml:space="preserve">
<g>
	<path fill="#A3A1A1" d="M15.341,17.216c0.005,0.004,0.008,0.01,0.017,0.014l2.011-4.87l-1.2,0.263l-0.38,0.895l-3.393,0.713
		l-0.294-0.705l-0.152,0.032l1.271,2.971C14.019,16.597,14.71,16.782,15.341,17.216 M15.719,13.687l-1.172,2.761
		c-0.62-0.064-1.243-0.038-1.243-0.038l-0.855-2.051L15.719,13.687z"/>
	<path fill="#A3A1A1" d="M18.148,30.239c0.132-0.211,0.252-0.428,0.372-0.65l-2.124-4.963l-0.284-0.672
		c-0.123,0.18-0.254,0.348-0.393,0.508l0.239,0.572L18.148,30.239z"/>
	<polygon fill="#A3A1A1" points="4.168,14.062 4.168,12.126 4.084,12.08 3.607,13.334 3.792,13.652 	"/>
	<path fill="#A3A1A1" d="M25.194,22.101l-0.121-0.025c-0.008,0.436-0.027,0.863-0.054,1.285l-1.793-0.307
		c0.036-0.441,0.062-0.885,0.069-1.34l1.777,0.361c0.004-0.043,0.004-0.084,0.004-0.127l-1.669-0.381l0.924-0.072l0.745-0.205
		l0.09-0.025l0.098,0.027l1.396,0.348l-1.654,0.322l0.102,0.178l0.155-0.057l1.859-0.43l0.017-1.207l-1.888-0.503l-0.012-0.004
		c-0.007-0.345-0.023-0.689-0.04-1.026l0.76-0.339l1.006-0.631l-0.131-1.238l-1.942-0.75l-0.009,0.003
		c-0.017-0.071-0.026-0.137-0.037-0.206l0.609-0.442l1.021-1.136l-0.459-1.166l-1.985-0.865l-0.305,0.126l0.18-0.268l1.865-0.389
		v-1.324l-0.976-0.511V2.593V2.584l-1.726-1.146l-1.484,0.535v1.717l-1.741-1.092l-1.416,0.508v7.405l-2.142,0.511V9.762
		l1.157-0.331c0.703-0.208,0.734-0.606,0.734-0.834V5.713c0-0.641-0.387-0.848-0.387-0.848L16.88,4.333
		c-0.736-0.437-1.219-0.226-1.219-0.226l-2.285,0.813v1.372l-0.291-0.145V3.927L9.607,2.121v0.181l1.01,0.528v2.582l-1.01-0.49
		v-2.62H9.604V2.121L8.185,2.711v2.711l1.317-0.466v0.251L8.185,5.669v2.792l1.317-0.406v0.25L8.185,8.708v2.854l1.317-0.336v0.247
		l-1.317,0.34v2.754l1.419-0.299v-2.632h0.004v-0.187l0.833,0.4v0.573l-0.501,0.119v1.223l13.822-3.115l1.742,0.832l-1.742,0.368
		l-1.286-0.622l-4.133,0.924c0.117,0.216,0.231,0.44,0.342,0.669c0.01,0.031,0.025,0.061,0.043,0.089l-0.145,0.024h-0.007
		c-0.004-0.014-0.063-0.143-0.101-0.21l-2.174,5.141l-0.163-0.039l0.321-0.755l1.187-2.797l0.3-0.709l0.156-0.366l0.074-0.176
		l0.22-0.502c-0.075-0.141-0.144-0.265-0.187-0.338l-0.625,0.129l-0.381,0.912l-0.069,0.174l-0.123,0.292l-0.031,0.075l-1.132,2.744
		l-0.344,0.832l-0.058,0.141l-0.069,0.167l-0.078-0.017l-0.098-0.023l0.098-0.237c-0.595-0.429-1.307-0.695-2.07-0.766
		c-0.069-0.007-0.133-0.011-0.2-0.015l-0.517-1.235L11.771,13.6l-0.546,0.122l0.432,1.037c-0.065-0.083-0.149-0.13-0.248-0.13
		h-0.015l-0.012-0.037l-0.348-0.828l-1.096,0.242v0.439l0.452,1.069c-0.06,0.087-0.097,0.191-0.097,0.304
		c0,0.189,0.102,0.358,0.254,0.455v1.123L9.51,17.55c-0.015,0.002-0.031,0.01-0.047,0.014l-0.313,0.161l-0.965,0.158v0.333
		L7.926,18.35v-0.423l-1.087,0.175v0.801l-0.255,0.132v-0.889l-0.926,0.15v1.211l-0.26,0.13v-1.297l-1.044,0.172v1.662l-0.185,0.092
		v-2.582v-0.488V15.72l-0.554-0.197l-0.706,0.018l-0.284,1.112l0.544,0.502l0.924,0.492c-0.057,0.38-0.107,0.768-0.153,1.161
		l-0.635-0.08l-1.024,0.193l-0.107,1.076l0.965,0.518l0.405,0.072l-1.12,0.568c-0.069,0.037-0.101,0.115-0.08,0.184
		c0.019,0.07,0.09,0.119,0.162,0.111l1.268-0.133c-0.007,0.141-0.008,0.281-0.011,0.422l0.369-0.447l1.202,1.51l-0.012,7.467
		c0.088,0.211,0.182,0.416,0.284,0.615L5.315,30.89l0.004-0.621c-0.051-0.111-0.098-0.223-0.143-0.332
		c-0.031-0.078-0.062-0.148-0.09-0.223V29.54l0.012-6.672l-0.978-1.25l-0.956,1.158l-0.008,1.373l0.697,0.105
		c0.035,0.371,0.073,0.734,0.123,1.092l0.123,0.992l0.201,0.797c0.045,0.213,0.095,0.418,0.153,0.625l-1.069-0.045l0.917-0.58
		c-0.131-0.576-0.237-1.172-0.323-1.789l-0.824,0.537l-0.002,1.988L4.5,27.94c0.035,0.129,0.073,0.254,0.108,0.381l-0.816,0.848
		L3.371,30.03l0.444,1.033l1.27-0.006l-0.002,1.191l0.233-0.502v-0.002v-0.688l0.372-0.004h0.06l-0.035,0.049l-0.396,0.643v1.045
		c-0.078-0.025-0.151-0.047-0.233-0.066v-0.475l-0.198,0.432c-0.242-0.045-0.507-0.07-0.784-0.07c-0.349,0-0.675,0.037-0.963,0.111
		l0.012-4.85l-0.153-0.008l-0.073-0.023l-0.017,4.941c-0.497,0.164-0.82,0.426-0.82,0.719c0,0.496,0.9,0.896,2.014,0.896
		c0.835,0,1.552-0.227,1.857-0.547l1.292-0.047l-0.272,0.697L6.963,35.69l0.554,0.514l1.861-0.16L9.37,36.087l0.084,1.438
		l0.734,0.361l1.799-0.188l0.248,0.721l0.848,0.143l2.084-0.207l0.027,0.064l0.012,0.033l0.031,0.066l0.751-0.008l1.292-0.18
		l0.871-0.256l0.128-0.586l1.788-0.189l0.883-0.662c1.19-0.105,2.087-0.57,2.087-1.121c0-0.133-0.051-0.264-0.146-0.381l0.634-0.738
		l-0.313-1.328l-0.364-0.592l1.866-0.07l0.543-0.939l-0.507-1.211l-0.666-0.826c0.045-0.141,0.089-0.281,0.133-0.42l1.809,0.061
		l0.282-1.152l-0.716-0.826l-0.764-0.592c0.063-0.342,0.118-0.693,0.171-1.045l0.6,0.107l1.23-0.113l0.214-1.076l-0.964-0.637
		l-0.868-0.34c0.023-0.432,0.046-0.867,0.052-1.314L25.194,22.101z M25.247,20.089l1.748,0.473l-0.017,0.964l-1.714-0.404l0,0
		l-0.03-1.037L25.247,20.089z M21.586,6.019l-1.635-3.109l1.635,0.987V6.019z M19.845,6.214l1.741,3.517v0.025l-1.741,0.415V6.214z
		 M14.785,5.961l0.5,0.25v1.091c0,0.069-0.06,0.143-0.132,0.167l-0.368,0.108V5.961z M15.905,9.606
		c0.286,0.133,0.254,0.408,0.254,0.408v1.042l-1.374,0.325V9.133C15.115,9.27,15.7,9.516,15.905,9.606 M16.191,8.627
		c0.536-0.177,0.514-0.726,0.514-0.726s0.012-2.927,0.012-3.191s-0.145-0.377-0.145-0.377s0.63,0.358,1.066,0.6
		c0.444,0.24,0.409,0.825,0.409,0.825v2.839c0,0.493-0.625,0.702-0.625,0.702l-1.151,0.336l-1.332-0.593
		C14.939,9.042,15.649,8.803,16.191,8.627 M15.153,5.697L15.153,5.697c0.073-0.018,0.132,0.022,0.132,0.094v0.273l-0.5-0.249V5.807
		L15.153,5.697z M12.951,6.081l-0.83-0.415V3.61l0.83,0.433V6.081z M11.442,5.617v-2.36l0.544,0.282v2.059l-0.209-0.104
		L11.442,5.617z M10.757,2.898l0.552,0.29v2.477l-0.097,0.033l-0.455-0.222V2.898z M9.607,5.161l1.332,0.637L10.44,5.977v2.45
		L9.607,8.022V7.851L9.604,7.849V5.358h0.004V5.161z M9.607,11.198v-0.17H9.604v-2.57l0.004,0.003V8.275l0.833,0.397v2.929
		L9.607,11.198z M11.777,5.699l1.599,0.798v5.223l-1.599,0.383V5.699z M23.071,9.4V1.684l1.552,1.006v6.997l-0.861-0.453L23.071,9.4
		z M23.761,9.378l1.83,0.956v1.067l-1.83-0.909V9.378z M3.305,24.03l0.51-0.086l0.022,0.158L3.305,24.03z M5.084,30.896
		l-1.088,0.021l0.752-0.545l0.337-0.35L5.084,30.896z M23.786,25.239l1.026,0.184c-0.046,0.357-0.11,0.711-0.174,1.059l-1.909-0.176
		c0.099-0.43,0.187-0.871,0.258-1.32L23.786,25.239z M22.181,29.319v0.002V29.319L22.181,29.319v-1.059
		c-0.076,0.23-0.154,0.455-0.237,0.678v0.367l0,0v0.004v-0.004l-0.142-0.008c0.051-0.119,0.095-0.24,0.142-0.359v-7.234
		l-1.242-1.687l-0.178-0.242l-0.193,0.303l-0.557,0.855l0.575-0.049c0,0.066,0.004,0.133,0.004,0.199v0.029l-0.736,0.062
		l-0.34,0.523v0.137l1.065-0.092c-0.062,2.133-0.434,4.152-1.024,5.91l0.045,5.812c-0.032,0.043-0.196,0.227-0.238,0.275l0,0l0,0
		l0,0l-0.04-5.434c-0.12,0.309-0.247,0.607-0.38,0.898l-2.077-4.838c0.576-0.68,0.993-1.5,1.186-2.406l1.223-0.105v-0.158
		l0.327-0.504l-3.747,0.316c-0.045,0.422-0.141,0.824-0.275,1.195c-0.056,0.146-0.115,0.285-0.181,0.418l0.181,0.432l0.3,0.717
		c0.139-0.162,0.264-0.338,0.379-0.521c0.041-0.061,0.079-0.121,0.118-0.186c0.268-0.455,0.473-0.955,0.609-1.492l0.187-0.014
		c-0.148,0.619-0.389,1.197-0.708,1.711l0.305,0.709l2.09,4.9c0.004-0.006,0.008-0.014,0.013-0.018l-0.009,0.02l-0.004-0.002
		c-0.178,0.381-0.372,0.738-0.574,1.078l-0.016-0.033l-2.214-5.277l-0.309-0.719h0.002l-0.169-0.408l-0.29-0.688
		c0,0-0.294-0.047-0.554,0.143c-0.188,0.133-0.3,0.305-0.35,0.391c-0.108-0.133-0.233-0.256-0.364-0.367
		c0.507-0.439,0.881-1.123,1.01-1.92c0.015-0.076,0.024-0.152,0.035-0.23c0.011-0.133,0.017-0.266,0.017-0.398
		c0-0.268-0.027-0.521-0.074-0.767l0.586-0.062c-0.003,0.016-0.012,0.032-0.017,0.052c-0.06,0.166-0.138,0.494,0,0.806
		c0.042,0.107,0.113,0.213,0.22,0.309l2.368-0.199l1.593-0.135l0.791-1.22l0.088-0.13l0.237-0.028l0.145,0.197l1.399,1.927v6.561
		c0.022-0.066,0.049-0.137,0.067-0.205l0.908,0.691l0.879,0.225c-0.043,0.15-0.09,0.299-0.138,0.443L22.181,29.319z M19.787,34.405
		c-0.144,0.018-0.282,0.037-0.415,0.062l-0.009-0.703L19.787,34.405z M18.599,34.454l0.529-0.592l0.002,0.592H18.599z
		 M18.958,34.571c-0.213,0.061-0.399,0.139-0.559,0.229l0.258-0.229H18.958z M8.911,28.874c0.008,0,0.017,0,0.026,0
		c0.024,0.006,0.047,0.01,0.071,0.01c0.047,0.006,0.098,0.01,0.146,0.01c0.225,0.123,0.464,0.223,0.713,0.305
		c0.062,0.018,0.123,0.035,0.182,0.053c0.095-0.029,0.203-0.086,0.311-0.193c0.103-0.102,0.194-0.246,0.27-0.463
		c0.25-0.756,0.207-0.668,0.516-0.859c0.195-0.123,0.19-0.322,0.243-0.553c0.088,0,0.172-0.002,0.258-0.002
		c-0.035,0.113-0.054,0.223-0.054,0.316c0,0.281-0.298,0.297-0.472,0.398c-0.182,0.109-0.121,0.268-0.182,0.477
		c-0.059,0.209-0.237,0.488-0.309,0.623c-0.012,0.027-0.037,0.057-0.06,0.088c-0.065,0.086-0.155,0.182-0.208,0.238
		c0.13,0.023,0.264,0.043,0.395,0.053c0.069-0.066,0.17-0.164,0.264-0.268c0.146-0.148,0.29-0.311,0.337-0.41
		c0.103-0.219,0.103-0.369,0.548-0.578c0.724-0.297,0.37-0.738,0.591-0.947c0.01-0.01,0.022-0.02,0.031-0.029
		c0.051-0.004,0.102-0.006,0.147-0.012c-0.073,0.119-0.045,0.236-0.094,0.357c-0.068,0.168-0.11,0.449-0.258,0.539
		c-0.151,0.09-0.243,0.289-0.403,0.354c-0.161,0.059-0.277,0.166-0.352,0.375c-0.034,0.105-0.207,0.23-0.337,0.35
		c-0.114,0.105-0.192,0.209-0.094,0.287c0.034,0,0.065,0,0.095-0.002c1.473-0.043,2.778-0.893,3.203-2.24
		c0.026-0.074,0.042-0.15,0.061-0.229c-0.417,1.23-1.607,2.025-3.012,2.166c0.045-0.062,0.096-0.123,0.139-0.18
		c0.147-0.211,0.477-0.441,0.656-0.631c0.183-0.189,0.28-0.42,0.391-0.568c0.104-0.146,0.045-0.41,0.254-0.6
		c0.089-0.01,0.174-0.016,0.259-0.025c-0.041,0.133-0.092,0.227-0.217,0.461c0.183-0.174,0.293-0.299,0.369-0.479
		c0.083-0.014,0.167-0.025,0.245-0.035c-0.092,0.365-0.217,0.707-0.362,0.941c0.204-0.234,0.374-0.582,0.49-0.965
		c0.628-0.1,1.045-0.242,1.125-0.402v0.006c-0.223,1.715-1.756,3.045-3.622,3.045C10.339,29.655,9.538,29.362,8.911,28.874
		 M7.773,23.415c-0.005-0.205-0.005-0.436,0.004-0.691l0.217-0.014c-0.002,0.156-0.008,0.646,0.025,1.121
		c0.008,0.109,0.02,0.219,0.032,0.322c-0.065,0.094-0.129,0.186-0.182,0.283C7.838,24.269,7.788,23.923,7.773,23.415 M8.186,22.776
		c0-0.029,0-0.057,0.007-0.082l1.264-0.092c-0.047,0.119-0.078,0.252-0.086,0.404c-0.443,0.234-0.834,0.549-1.145,0.924
		C8.203,23.667,8.172,23.116,8.186,22.776 M10.44,21.474c-0.012-0.043-0.056-0.074-0.117-0.074c-0.025,0-0.046,0.008-0.069,0.02
		c-0.014-0.035-0.056-0.061-0.104-0.061c-0.065,0-0.119,0.041-0.119,0.092c0,0.012,0.002,0.023,0.009,0.031
		c-0.271,0-0.521-0.027-0.698-0.105c-0.303-0.137-0.094-0.125-0.021-0.197c0.073-0.076-0.335-0.086-0.335-0.234
		c0-0.088,0.068-0.146,0.119-0.178l0.832-0.086c0.166,0.039,0.454,0.115,0.538,0.162c0.11,0.061,1.253,0.145,1.536,0.209
		c0.284,0.061,0.642,0.199,0.642,0.775c0,0.457-0.579,0.559-0.808,0.578v-0.17c0.01-0.014,0.018-0.029,0.018-0.045
		c0-0.01-0.001-0.02-0.006-0.025c0.062-0.008,0.106-0.039,0.106-0.078c0-0.008,0-0.016-0.007-0.023
		c0.015,0.004,0.031,0.01,0.054,0.01c0.049,0,0.09-0.023,0.09-0.057c0-0.025-0.021-0.045-0.051-0.051
		c0.012-0.01,0.022-0.018,0.022-0.035c0-0.021-0.022-0.039-0.053-0.039s-0.055,0.018-0.055,0.039c0,0.012,0.008,0.025,0.016,0.031
		c-0.034,0.008-0.061,0.027-0.061,0.055c0,0.002,0.001,0.008,0.001,0.01c-0.018-0.014-0.049-0.02-0.075-0.02v-0.078
		c0.065-0.078,0.073-0.145,0.042-0.203c0.045-0.01,0.076-0.037,0.076-0.072c0-0.045-0.053-0.08-0.121-0.08
		c-0.044,0-0.077,0.014-0.1,0.035l0,0c-0.028-0.012-0.061-0.025-0.091-0.037c0.026-0.012,0.042-0.023,0.042-0.037
		s-0.01-0.025-0.03-0.035c0.014-0.008,0.024-0.023,0.024-0.037c0-0.031-0.041-0.055-0.089-0.055c-0.054,0-0.091,0.023-0.091,0.055
		c0,0.002,0,0.004,0.002,0.006c-0.017,0-0.033-0.002-0.043-0.002c-0.073,0-0.137,0.01-0.175,0.025c-0.019,0-0.035-0.004-0.05-0.008
		c0.002-0.002,0.008-0.008,0.008-0.014c0-0.031-0.057-0.055-0.12-0.055c-0.063,0-0.115,0.021-0.121,0.047
		c-0.013,0-0.023-0.002-0.037-0.002c0.014-0.014,0.024-0.031,0.024-0.051c0-0.047-0.047-0.086-0.106-0.086
		c-0.053,0-0.095,0.039-0.095,0.086c0,0.018,0.005,0.031,0.016,0.049c-0.031,0-0.062,0-0.088,0
		c-0.004-0.035-0.035-0.062-0.078-0.062c0.014-0.014,0.025-0.029,0.025-0.051c0-0.035-0.033-0.064-0.076-0.064
		c-0.039,0-0.076,0.029-0.076,0.064c0,0.037,0.032,0.064,0.07,0.064c-0.017,0.014-0.027,0.031-0.027,0.053v0.004
		C10.518,21.468,10.48,21.472,10.44,21.474 M7.842,27.513c-0.178-0.412-0.28-0.857-0.28-1.328c0-1.281,0.73-2.393,1.814-2.996
		c0.057,0.434,0.464,0.926,1.538,1.461c-0.041,0.043-0.157,0.174-0.196,0.281c-0.047,0.137-0.178,0.137-0.294,0.209
		c-0.121,0.074-0.333,0.285-0.298,0.504c0.024,0.131-0.01,0.225-0.053,0.305c-0.168,0.008-0.33,0.02-0.485,0.035
		c0.021-0.42,0.102-0.807,0.231-1.139c-0.202,0.314-0.335,0.711-0.364,1.15c-0.088,0.006-0.17,0.016-0.254,0.025
		c0.021-0.605,0.16-1.16,0.377-1.611c-0.291,0.434-0.477,1.004-0.5,1.627c-0.141,0.018-0.28,0.037-0.403,0.059
		c0.015-0.639,0.176-1.232,0.44-1.717c-0.366,0.471-0.593,1.078-0.603,1.748c-0.069,0.014-0.139,0.031-0.203,0.045v-0.023
		c0-0.684,0.196-1.314,0.53-1.824c-0.425,0.494-0.683,1.127-0.683,1.824c0,0.023,0.001,0.041,0.001,0.062
		C7.802,26.306,7.6,26.421,7.6,26.55c0,0.137,0.247,0.264,0.665,0.365c0.112,0.395,0.311,0.756,0.575,1.057
		c-0.197-0.301-0.344-0.648-0.436-1.023c0.069,0.014,0.143,0.027,0.217,0.043c0.102,0.369,0.271,0.705,0.495,0.988
		c-0.159-0.289-0.276-0.613-0.352-0.965c0.13,0.021,0.275,0.045,0.427,0.061c0.088,0.324,0.219,0.621,0.387,0.871
		c-0.125-0.256-0.221-0.547-0.291-0.861c0.075,0.008,0.146,0.016,0.224,0.023c-0.017,0.084-0.01,0.189,0.023,0.33
		c0.102,0.428,0.207,0.473,0.014,0.668c-0.139,0.133-0.045,0.32,0.023,0.414c-0.448-0.121-0.965-0.311-1.314-0.594
		C8.08,27.786,7.945,27.644,7.842,27.513 M13.761,25.806c-0.004,0.096-0.007,0.189-0.017,0.287
		c-0.065-0.012-0.135-0.021-0.205-0.031c-0.008-0.143-0.063-0.33-0.084-0.393C13.564,25.714,13.667,25.763,13.761,25.806
		 M13.341,25.62c0.049,0.203,0.017,0.34-0.02,0.41c-0.043-0.006-0.088-0.012-0.135-0.016c-0.042-0.08-0.053-0.217,0.004-0.451
		l-0.024-0.014C13.225,25.573,13.285,25.597,13.341,25.62 M12.978,25.995c-0.053-0.008-0.104-0.012-0.162-0.02
		c0.029-0.238,0.139-0.395,0.069-0.533c0.053,0.02,0.109,0.041,0.164,0.062C13.033,25.567,12.974,25.792,12.978,25.995
		 M11.972,25.929c-0.043-0.002-0.086-0.006-0.126-0.006c-0.035-0.236-0.053-0.473,0.261-0.764c0.078,0.025,0.157,0.057,0.239,0.086
		c0.014,0.006,0.025,0.008,0.037,0.014C12.323,25.331,12.039,25.698,11.972,25.929 M9.959,26.354
		c0.14,0.285,0.004,0.387-0.174,0.461c-0.051,0.02-0.098,0.041-0.139,0.074c-0.039-0.221-0.065-0.457-0.065-0.703
		c0.114-0.006,0.239-0.014,0.364-0.02C9.929,26.224,9.929,26.28,9.959,26.354 M8.313,26.315c0.06-0.01,0.129-0.02,0.198-0.027
		c0.006,0.174,0.031,0.352,0.063,0.518c-0.07-0.01-0.141-0.021-0.208-0.033C8.342,26.626,8.323,26.47,8.313,26.315 M8.221,26.751
		c-0.32-0.064-0.515-0.133-0.515-0.213c0-0.07,0.168-0.135,0.458-0.193C8.172,26.481,8.193,26.618,8.221,26.751 M8.675,26.267
		c0.123-0.016,0.256-0.031,0.403-0.043c0,0.221,0.02,0.438,0.061,0.643c-0.146-0.016-0.284-0.031-0.413-0.043
		C8.698,26.644,8.683,26.456,8.675,26.267 M9.196,26.212c0.083-0.008,0.166-0.01,0.25-0.018c0.002,0.246,0.036,0.48,0.098,0.699
		c-0.102-0.008-0.2-0.012-0.296-0.02C9.217,26.661,9.196,26.44,9.196,26.212 M11.624,26.741c0.215-0.225,0.253-0.414,0.246-0.596
		c0.041,0.002,0.087,0.002,0.129,0.004c0.067,0.166,0.128,0.336-0.035,0.461c-0.084,0.064-0.166,0.186-0.229,0.324
		c-0.083,0.006-0.17,0.006-0.257,0.008C11.515,26.874,11.559,26.81,11.624,26.741 M12.822,26.224
		c-0.004-0.014-0.004-0.029-0.006-0.039c0.069,0.004,0.131,0.01,0.194,0.01c0.008,0.023,0.019,0.045,0.031,0.061
		c0.126,0.174,0.108,0.451-0.074,0.635c-0.083,0.006-0.167,0.012-0.253,0.014C12.816,26.726,12.869,26.501,12.822,26.224
		 M13.352,26.86l0.051-0.186l0.004-0.322c0.019-0.033,0.047-0.074,0.088-0.117c0.08,0.01,0.159,0.016,0.233,0.025
		c-0.023,0.184-0.056,0.381-0.099,0.572C13.542,26.843,13.45,26.851,13.352,26.86 M13.875,26.278c0.536,0.07,0.859,0.162,0.859,0.26
		c0,0.111-0.367,0.207-0.968,0.279C13.814,26.642,13.851,26.456,13.875,26.278 M13.892,26.118c0.006-0.08,0.012-0.158,0.015-0.24
		c0.071,0.045,0.147,0.086,0.208,0.127c0.146,0.096,0.287,0.189,0.399,0.275C14.356,26.224,14.141,26.165,13.892,26.118
		 M14.638,24.995c-0.302-0.195-0.694-0.402-1.178-0.615c-0.119-0.256-0.296-0.488-0.527-0.684c0.159,0.193,0.274,0.387,0.357,0.611
		c-0.124-0.053-0.251-0.102-0.388-0.154c-0.014-0.006-0.029-0.012-0.041-0.016c-0.097-0.197-0.244-0.371-0.43-0.527
		c0.139,0.164,0.235,0.293,0.303,0.48c-2.134-0.82-2.247-1.064-2.155-1.32c0-0.002,0.006-0.002,0.006-0.002
		c0.048-0.008,0.092-0.014,0.141-0.021v-0.162v-0.889l0.201-0.02v0.18c0,0.033,0.021,0.057,0.05,0.057
		c0.031,0,0.055-0.023,0.055-0.057v-0.189l0.297-0.021c0.137,0.027,0.262,0.072,0.342,0.105v0.832v0.162
		c0.046,0.006,0.091,0.01,0.137,0.016C13.116,22.966,14.197,23.839,14.638,24.995 M11.671,20.89
		c-0.033-0.006-0.064-0.01-0.103-0.016c-0.208-0.031-0.386-0.057-0.536-0.078v-0.227l0.639-0.066V20.89z M10.927,20.78
		c-0.079-0.014-0.146-0.023-0.201-0.035v-0.146l0.201-0.02V20.78z M10.548,20.716c-0.141-0.023-0.227-0.043-0.294-0.066l0.294-0.031
		V20.716z M10.548,22.519c-0.078,0.104-0.219,0.336-0.108,0.527c0.114,0.283,0.618,0.562,2.507,1.275
		c0.892,0.34,2.987,1.057,2.554,2.436c-0.077,0.25-0.434,0.5-0.662,0.564c0.006-0.016,0.01-0.031,0.016-0.045l-0.021,0.025
		c0.011-0.041,0.035-0.145,0.062-0.25c0.024,0,0.055-0.004,0.079-0.029c0.046-0.031,0.062-0.08,0.039-0.111
		c-0.021-0.021-0.053-0.025-0.088-0.01c0.017-0.07,0.024-0.121,0.024-0.131s-0.002-0.027-0.008-0.047
		c0.039,0.027,0.078,0.039,0.101,0.021c0.016-0.012,0.019-0.035,0.012-0.066c0.002,0.006,0.004,0.008,0.007,0.014
		c0.024,0.033,0.081,0.035,0.122,0.004c0.043-0.033,0.053-0.086,0.024-0.123c-0.024-0.035-0.08-0.037-0.122-0.002
		c-0.029,0.021-0.041,0.055-0.039,0.084c-0.01-0.023-0.022-0.053-0.045-0.08c-0.052-0.066-0.117-0.1-0.151-0.082
		c-0.043-0.076-0.113-0.166-0.208-0.264c0,0,0.007,0,0.011-0.006c0.055-0.043,0.065-0.137,0.009-0.203
		c-0.053-0.066-0.143-0.084-0.198-0.037c-0.022,0.012-0.03,0.035-0.037,0.057c-0.049-0.037-0.1-0.076-0.151-0.113
		c0.024-0.004,0.053-0.016,0.078-0.035c0.073-0.055,0.086-0.156,0.039-0.225c-0.056-0.064-0.156-0.072-0.227-0.018
		c-0.055,0.041-0.078,0.107-0.063,0.164c-0.069-0.041-0.144-0.086-0.225-0.131c0.008-0.021,0.008-0.045,0.004-0.07
		c0.022-0.004,0.041-0.012,0.057-0.023c0.027-0.025,0.042-0.057,0.045-0.098c0.029,0.018,0.06,0.018,0.083,0
		c0.033-0.021,0.033-0.076,0.001-0.113c-0.03-0.039-0.078-0.047-0.108-0.021c0,0-0.001,0.006-0.006,0.006
		c-0.006-0.008-0.011-0.018-0.019-0.027c-0.069-0.088-0.18-0.113-0.245-0.062c-0.055,0.045-0.063,0.133-0.024,0.213
		c-0.002,0-0.002,0.002-0.008,0.004c-0.019,0.016-0.025,0.035-0.031,0.061c-0.126-0.064-0.27-0.127-0.425-0.193
		c0.008-0.064-0.024-0.143-0.09-0.203c-0.09-0.086-0.216-0.111-0.276-0.045c-0.021,0.02-0.028,0.051-0.028,0.086
		c-0.043-0.018-0.086-0.035-0.129-0.051c0.022-0.031,0.027-0.072,0.012-0.107c0.007-0.006,0.015-0.01,0.019-0.012
		c0.065-0.047,0.067-0.146,0.012-0.217c-0.057-0.072-0.152-0.094-0.21-0.043c-0.063,0.049-0.07,0.145-0.015,0.217
		c-0.022,0.02-0.033,0.055-0.033,0.086l0,0c-0.033-0.014-0.061-0.025-0.09-0.033c0.008-0.066-0.029-0.152-0.108-0.215
		c-0.039-0.027-0.082-0.049-0.125-0.059c0.002,0,0.004,0,0.008,0c0.033-0.025,0.035-0.074,0.006-0.115c0,0,0-0.002-0.004-0.002
		c0.004,0,0.008,0,0.01-0.004c0.047-0.035,0.047-0.113,0.002-0.17c-0.049-0.061-0.124-0.076-0.17-0.041
		c-0.047,0.035-0.049,0.115-0.006,0.174c0.015,0.014,0.031,0.027,0.043,0.035c-0.019,0.025-0.016,0.066,0.008,0.098
		c0.01,0.012,0.021,0.018,0.033,0.025c-0.031,0.006-0.057,0.018-0.076,0.041c-0.017,0.023-0.024,0.051-0.021,0.082
		c-0.035-0.012-0.065-0.027-0.104-0.039c0.016-0.072-0.045-0.166-0.147-0.234c-0.06-0.035-0.121-0.059-0.173-0.061
		c0.018-0.008,0.041-0.021,0.05-0.041c0.035-0.057,0.011-0.133-0.05-0.174c-0.066-0.043-0.148-0.031-0.181,0.025
		c-0.037,0.057-0.012,0.135,0.049,0.176c0.019,0.01,0.035,0.018,0.058,0.02c-0.027,0.01-0.047,0.021-0.06,0.041
		c-0.008,0.014-0.012,0.033-0.012,0.053c-0.076-0.035-0.149-0.07-0.221-0.104c-0.001-0.049-0.026-0.109-0.073-0.166
		c-0.043-0.059-0.098-0.1-0.149-0.113c0.06-0.049,0.053-0.145-0.004-0.221c-0.043-0.055-0.106-0.082-0.157-0.076
		c-0.004-0.01-0.004-0.012-0.012-0.018c-0.022-0.031-0.056-0.049-0.09-0.041c-0.002-0.033-0.012-0.068-0.039-0.098
		c-0.053-0.068-0.133-0.09-0.176-0.055c-0.051,0.037-0.044,0.121,0.006,0.186c0.041,0.055,0.104,0.08,0.149,0.068
		c0.006,0.014,0.011,0.029,0.021,0.041c0.011,0.012,0.028,0.023,0.039,0.029c0,0.041,0.016,0.088,0.049,0.129
		s0.069,0.066,0.113,0.076c-0.017,0.02-0.023,0.051-0.017,0.09c-0.103-0.057-0.198-0.111-0.289-0.164
		c-0.008-0.049-0.037-0.104-0.074-0.158c-0.082-0.096-0.182-0.148-0.232-0.109c-0.013,0.012-0.023,0.031-0.023,0.055
		c-0.118-0.088-0.225-0.174-0.307-0.256c0.023-0.057,0-0.148-0.065-0.229c-0.065-0.084-0.153-0.129-0.217-0.115
		c-0.025-0.043-0.041-0.084-0.059-0.127c0.034-0.014,0.069-0.041,0.087-0.084c0.04-0.082,0.016-0.172-0.046-0.205
		c-0.027-0.012-0.057-0.014-0.088-0.006c0.004-0.066,0.014-0.133,0.031-0.191c0,0.047,0.017,0.088,0.05,0.104
		c0.057,0.029,0.137-0.014,0.178-0.096c0.039-0.082,0.024-0.17-0.03-0.197c-0.055-0.023-0.115,0.004-0.156,0.064
		c0.041-0.105,0.096-0.199,0.168-0.283c0.01,0.035,0.03,0.064,0.063,0.08c0.066,0.033,0.152-0.008,0.188-0.088
		c0.038-0.08,0.024-0.166-0.041-0.201c0.186-0.15,0.394-0.252,0.566-0.305V22.519z M7.28,27.479c-0.026,0-0.049,0.01-0.061,0.025
		c0-0.051,0.004-0.096,0.01-0.135c0.012,0.016,0.024,0.025,0.039,0.025c0.027,0,0.044-0.035,0.044-0.084
		c0-0.039-0.016-0.072-0.037-0.08c0.076-0.172,0.213-0.242,0.213-0.242s0.004,0.021,0.012,0.059c-0.029,0-0.056,0.037-0.056,0.082
		c0,0.047,0.027,0.084,0.06,0.084c0.017,0,0.027-0.01,0.039-0.023c0.079,0.225,0.255,0.596,0.636,0.846
		c0.789,0.529,1.852,0.668,1.852,0.668c-0.198,0.041-0.409,0.064-0.627,0.064c-0.016-0.037-0.076-0.064-0.151-0.064H9.252V28.7
		c0-0.049-0.037-0.088-0.084-0.088c-0.041,0-0.069,0.029-0.077,0.062c-0.012,0-0.03,0-0.047,0c-0.069,0-0.128,0.01-0.175,0.025
		c0.008-0.016,0.016-0.033,0.016-0.053c0-0.045-0.029-0.082-0.061-0.082c-0.025,0-0.04,0.016-0.049,0.039
		c-0.024-0.01-0.051-0.018-0.082-0.018c-0.042,0-0.078,0.01-0.11,0.029c-0.022-0.025-0.063-0.041-0.109-0.045
		c0.009-0.021,0.017-0.045,0.017-0.074c0-0.07-0.03-0.129-0.063-0.129S8.36,28.427,8.36,28.497c0,0.006,0.004,0.01,0.004,0.014
		c-0.026-0.014-0.061-0.023-0.1-0.023c-0.028,0-0.053,0.004-0.071,0.012c0.004-0.018,0.01-0.041,0.01-0.066
		c0-0.08-0.047-0.148-0.108-0.148c-0.035,0-0.064,0.021-0.084,0.053c-0.016-0.021-0.041-0.031-0.065-0.031
		c-0.019,0-0.029,0.004-0.045,0.016c-0.015-0.014-0.031-0.023-0.054-0.023c-0.022,0-0.041,0.01-0.059,0.023
		c-0.002-0.047-0.035-0.082-0.072-0.086c0-0.02,0.004-0.031,0.004-0.045c0-0.062-0.021-0.109-0.045-0.145
		c0.031-0.016,0.052-0.051,0.052-0.1c0-0.059-0.033-0.105-0.068-0.105c-0.039,0-0.073,0.047-0.073,0.105
		c0,0.02,0.005,0.041,0.016,0.059c-0.035,0-0.066,0.021-0.084,0.061c-0.012-0.008-0.024-0.014-0.035-0.014
		c-0.029,0-0.047,0.018-0.062,0.037c-0.001-0.002-0.006-0.008-0.008-0.012c0.021-0.025,0.033-0.066,0.033-0.111
		c0-0.029-0.004-0.055-0.016-0.078c0.043-0.008,0.076-0.047,0.076-0.1c0-0.057-0.039-0.105-0.085-0.105
		c-0.049,0-0.091,0.049-0.091,0.105c0,0.014,0.003,0.027,0.008,0.039c-0.025,0.004-0.041,0.021-0.053,0.037
		c-0.017-0.037-0.031-0.078-0.037-0.119c-0.006-0.023-0.016-0.055-0.018-0.078c0.018,0.012,0.033,0.016,0.051,0.016
		c0.052,0,0.092-0.045,0.092-0.1C7.373,27.526,7.332,27.479,7.28,27.479 M11.026,29.812c0.045,0,0.084,0,0.131,0
		c-0.237,0.5-0.446,1.354,0.536,1.984c0.765,0.492,1.679,0.754,2.503,0.754c1.322-0.002,2.391-0.561,2.391-0.561
		s-1.444,1.051-3.301,0.615C9.996,31.8,10.855,30.097,11.026,29.812 M13.563,32.325c-2.072-0.275-2.667-1.469-2.389-2.18
		c0.067-0.168,0.104-0.27,0.135-0.334c1.564-0.035,2.9-0.971,3.45-2.281c0.137-0.041,0.439-0.158,0.671-0.412l1.438,3.514
		c0,0,0.208,0.631-0.195,1.014C16.114,32.175,14.767,32.489,13.563,32.325 M22.533,15.075l2.125,0.812l0.016-0.011
		c0.006,0.032,0.013,0.063,0.017,0.093L24,16.016l-1.15,0.406C22.755,15.962,22.651,15.515,22.533,15.075 M24.216,19.728h-0.949
		c-0.027-0.451-0.063-0.892-0.11-1.332l1.849,0.548c0.024,0.315,0.035,0.634,0.047,0.958L24.216,19.728z M26.721,16.82l0.071,1.021
		l-1.731-0.557l-0.009-0.003l-0.076-0.647l-0.056-0.519L26.721,16.82z M24.887,17.437l0.033-0.023l0.156,0.049l1.568,0.524
		l-0.718,0.46l-0.74,0.3l-0.11,0.044l-0.078-0.022l-1.731-0.523l0.834-0.287L24.887,17.437z M25.927,13.138l0.331,0.965L24.4,13.338
		l-0.271-0.994L25.927,13.138z M24.359,13.461l1.843,0.798l-0.893,0.979l-0.677,0.503l-1.956-0.807l0.991-0.717L24.359,13.461z
		 M22.404,11.322l1.309,0.629l-0.318,0.456l-0.377,0.153l-1.047,0.747c-0.137-0.371-0.282-0.732-0.439-1.081L22.404,11.322z
		 M16.71,17.358l1.794-4.245l0.288-0.061c0.729,1.63,1.233,3.6,1.443,5.738l-3.041-0.717C17.049,17.822,16.89,17.583,16.71,17.358
		 M12.624,17.09l-0.188,0.024l-0.417-1.048c0.041-0.076,0.063-0.157,0.063-0.248c0-0.014,0-0.025-0.001-0.037L12.624,17.09z
		 M11.949,15.465c-0.059-0.069-0.135-0.122-0.223-0.154c0.028-0.065,0.043-0.138,0.043-0.214c0-0.031-0.002-0.058-0.007-0.086
		L11.949,15.465z M11.624,15.098c0,0.066-0.025,0.131-0.065,0.179c-0.008,0-0.017,0-0.028,0h-0.682c-0.012,0-0.021,0-0.033,0
		c-0.037-0.048-0.059-0.112-0.059-0.179c0-0.158,0.116-0.281,0.264-0.281h0.333C11.503,14.816,11.624,14.939,11.624,15.098
		 M10.45,15.818c0-0.212,0.204-0.388,0.456-0.388h0.564c0.256,0,0.458,0.175,0.458,0.388c0,0.081-0.03,0.159-0.083,0.222v-0.003
		c0,0-0.335-0.134-0.655-0.134c-0.321,0-0.642,0.134-0.642,0.134v0.022C10.487,15.992,10.45,15.91,10.45,15.818 M10.727,16.181
		c0,0,0.068-0.045,0.201-0.08v0.096c0,0.031,0.021,0.055,0.05,0.055c0.031,0,0.055-0.024,0.055-0.055v-0.113
		c0.047-0.01,0.098-0.013,0.158-0.013c0.299,0,0.481,0.11,0.481,0.11v1.048l-0.639,0.095v-0.171c0-0.03-0.024-0.055-0.055-0.055
		c-0.029,0-0.05,0.025-0.05,0.055v0.189l-0.201,0.026V16.181z M2.491,21.294l7.043-3.591l3.266-0.484l2.469,0.561l0.225,0.053
		l0.058,0.013l0.288,0.064l-0.002,0.001l5.918,1.395L2.491,21.294z M5.921,33.712c-0.035,0.053-0.086,0.1-0.144,0.143
		c-0.323,0.25-0.953,0.414-1.677,0.414c-1.053,0-1.904-0.352-1.904-0.785c0-0.43,0.851-0.783,1.904-0.783
		c0.265,0,0.514,0.021,0.747,0.061c0.08,0.016,0.158,0.033,0.235,0.053v0.127c-0.09-0.025-0.186-0.041-0.292-0.059
		c-0.201-0.029-0.424-0.045-0.659-0.045c-0.828,0-1.497,0.203-1.497,0.457c0,0.252,0.668,0.459,1.497,0.459
		c0.441,0,0.834-0.059,1.106-0.152c0.241-0.08,0.384-0.188,0.384-0.307c0-0.105-0.114-0.201-0.309-0.277v-0.139
		c0.338,0.115,0.575,0.277,0.657,0.463c0.021,0.047,0.033,0.096,0.033,0.143C6.002,33.563,5.974,33.638,5.921,33.712 M4.591,33.271
		c-1.096-0.176-1.639,0.02-1.779,0.08C2.8,33.331,2.79,33.312,2.79,33.29c0-0.195,0.607-0.357,1.352-0.357
		c0.253,0,0.489,0.016,0.692,0.055c0.094,0.012,0.171,0.029,0.249,0.047v0.326v0.186c-0.245,0.068-0.576,0.104-0.941,0.104
		c-0.439,0-0.832-0.055-1.077-0.141c0.255-0.199,1.27-0.133,1.472-0.145C4.747,33.353,4.591,33.271,4.591,33.271 M5.313,33.112
		c0.111,0.057,0.176,0.113,0.176,0.178c0,0.066-0.065,0.123-0.176,0.18V33.112z M7.309,33.657L6.06,33.708
		c0.039-0.066,0.06-0.137,0.06-0.207c0-0.082-0.031-0.166-0.078-0.238l0.09-0.107l0.423-0.637c0.255,0.367,0.515,0.711,0.791,1.033
		L7.309,33.657z M9.413,35.882L7.684,36.05l0.534-0.672l0.3-0.678c0.321,0.268,0.654,0.508,1,0.717L9.413,35.882z M11.966,37.542
		l-1.559,0.193l0.311-0.791l0.119-0.871c0.38,0.146,0.767,0.258,1.16,0.342L11.966,37.542z M13.133,38.419l0.229-0.783l0.015-1.076
		c0.026,0,0.047,0.002,0.071,0.002c0.391,0,0.775-0.039,1.164-0.107l0.131,0.963l0.348,0.771L13.133,38.419z M13.448,33.769
		c-5.198,0.02-7.911-5.832-7.604-12.666l0.683-0.08c-0.149,0.561,0.03,0.99,0.028,1.025l3.896-0.33
		c-0.127,0.043-0.297,0.119-0.468,0.238l-3.436,0.32c-0.012,0.213-0.014,0.428-0.014,0.645c0,1.508,0.235,2.934,0.642,4.227
		c-0.069,0.15-0.11,0.35-0.057,0.6c0.061,0.277,0.262,0.514,0.547,0.701c0.252,0.574,0.539,1.107,0.849,1.602l0.442-0.939
		c0.094,0.062,0.071,0.045,0.135,0.082l-0.433,1.068c0,0-0.111,0.424,0.304,0.846c0.174,0.184,0.318,0.189,0.416,0.15l0.671-1.615
		c0.041,0.014,0.085,0.025,0.133,0.037l-0.679,1.676c1.196,1.328,2.634,2.117,4.067,2.125c0.91,0.004,1.801-0.338,2.623-0.932
		c0.368-0.264,0.719-0.58,1.056-0.936C16.152,32.964,14.845,33.765,13.448,33.769 M17.415,35.921l-1.312,0.072
		c0.379-0.166,0.747-0.365,1.108-0.602L17.415,35.921z M16.89,38.302l-0.815,0.105l0.234-0.184l1.089-0.082L16.89,38.302z
		 M18.054,37.921l-1.385,0.15l-0.285,0.029l-0.124,0.016v-1.104l-0.146-0.887l1.352-0.07l0.21,0.539l0.489,0.812L18.054,37.921z
		 M19.973,37.171l-1.405,0.117l0.586-0.443l1.457-0.121L19.973,37.171z M19.011,36.478c0.073,0.018,0.149,0.039,0.227,0.059
		c0.052,0.012,0.103,0.02,0.153,0.029c0.154,0.029,0.321,0.053,0.491,0.068l-0.748,0.055L19.011,36.478z M22.891,35.491
		c0,0.557-1.105,1.004-2.463,1.004c-0.309,0-0.599-0.02-0.871-0.064c-0.053-0.008-0.108-0.016-0.157-0.027
		c-0.847-0.158-1.432-0.508-1.432-0.912c0-0.557,1.098-1.008,2.46-1.008c0.273,0,0.547,0.021,0.794,0.057
		c0.059,0.004,0.117,0.016,0.171,0.025c0.199,0.031,0.383,0.08,0.551,0.133v0.188c-0.188-0.064-0.421-0.117-0.688-0.152
		c-0.055-0.008-0.114-0.014-0.174-0.02c-0.2-0.021-0.413-0.031-0.636-0.031c-1.075,0-1.944,0.25-1.944,0.562
		c0,0.273,0.681,0.5,1.582,0.549c0.063,0.004,0.12,0.004,0.185,0.012c0.06,0,0.116,0,0.178,0c0.599,0,1.14-0.078,1.497-0.201
		c0.092-0.033,0.172-0.07,0.237-0.109v-0.189v-0.047v-0.008v-0.133c0.039,0.02,0.09,0.059,0.12,0.127c0,0,0.018,0.041,0.058,0.027
		c0.035-0.012-0.015-0.16-0.178-0.275v-0.004v-0.207C22.615,34.968,22.891,35.214,22.891,35.491 M21.51,34.415l-0.062,0.004
		l-0.036-0.123l-0.259-0.816l-0.688-1.26l1.479-0.049v1.373v0.281v0.566L21.51,34.415z M21.944,34.509v0.074
		c-0.075-0.023-0.15-0.047-0.235-0.064L21.944,34.509z M20.919,35.128c-0.041-0.014-0.094-0.021-0.166-0.027
		c-0.08-0.008-0.174-0.016-0.282-0.016c-0.789,0-1.451,0.148-1.621,0.346c-0.093-0.055-0.141-0.115-0.141-0.178
		c0-0.248,0.778-0.453,1.737-0.453c0.19,0,0.372,0.008,0.544,0.023c0.063,0.002,0.123,0.01,0.176,0.016
		c0.323,0.041,0.594,0.105,0.777,0.184v0.461c-0.305,0.137-0.861,0.221-1.497,0.221c-0.027,0-0.051,0-0.078,0
		c-0.061,0-0.124,0-0.184-0.004c-0.336-0.012-0.64-0.051-0.883-0.105c-0.101-0.035-0.16-0.074-0.16-0.115
		c0-0.135,0.662-0.248,1.503-0.26c0.041,0,0.08,0,0.12,0c0.027,0,0.05,0,0.072-0.002C21.045,35.212,21.067,35.161,20.919,35.128
		 M22.77,35.011c-0.146-0.129-0.342-0.248-0.589-0.344v-0.168l1.054-0.035L22.77,35.011z M23.089,33.112l0.258,1.207l-1.166,0.061
		v-0.92v-0.297v-1l0.194-0.006l0.123-0.006l0.236,0.389L23.089,33.112z M24.6,32.284l-1.684,0.049l0.387-0.779l1.741-0.025
		L24.6,32.284z M24.617,30.343l0.417,1.059l-1.669,0.014l-0.146-0.23l-0.448-0.705l-0.589-0.684v2.211l0.004,0.021h-0.004v-0.021
		l-0.237-0.189v0.217l-1.557,0.039c0.24-0.371,0.467-0.764,0.682-1.17l0.84,0.883l0.035,0.031v-2.297l0.237,0.275l0.008-0.307
		l1.744,0.074L24.617,30.343z M25.923,28.894l-1.662-0.035h-0.007l0.264-0.932l0.008-0.031l1.603,0.123L25.923,28.894z
		 M25.303,27.052l0.745,0.795l-1.493-0.076h-0.029l-0.132-0.129l-0.561-0.562l-1.002-0.635l1.935,0.201L25.303,27.052z
		 M25.58,25.442l-0.604-0.113l0.144-0.082l0.92,0.166L25.58,25.442z M26.71,25.358l-1.662-0.219l0.111-0.982l1.704,0.281
		L26.71,25.358z M25.927,23.8l0.718,0.453l-1.485-0.221l-0.788-0.607l0.817,0.109L25.927,23.8z"/>
	<polygon fill="#A3A1A1" points="19.363,21.194 19.617,21.175 19.774,20.933 19.521,20.954 	"/>
	<polygon fill="#A3A1A1" points="3.152,25.884 3.156,24.149 3.076,24.138 2.935,24.103 2.931,26.062 2.976,26.001 	"/>
	<path fill="#A3A1A1" d="M3.761,21.739l-0.188,0.232h0.184C3.757,21.892,3.757,21.815,3.761,21.739"/>
	<polygon fill="#A3A1A1" points="2.407,26.737 2.667,27.771 2.923,27.841 2.931,26.062 	"/>
	<polygon fill="#A3A1A1" points="3.573,21.972 3.508,21.972 2.191,22.798 2.213,23.923 2.935,24.103 2.937,22.735 	"/>
	<path fill="#A3A1A1" d="M19.084,28.308c0.078-0.215,0.16-0.434,0.233-0.654l-0.041-5.818l-0.241,0.021L19.084,28.308z"/>
	<polygon fill="#A3A1A1" points="7.926,2.818 6.839,3.268 6.839,5.892 7.926,5.511 	"/>
	<polygon fill="#A3A1A1" points="7.926,14.871 6.839,15.101 6.839,17.853 7.926,17.676 	"/>
	<polygon fill="#A3A1A1" points="7.926,11.877 6.839,12.157 6.839,14.851 7.926,14.624 	"/>
	<polygon fill="#A3A1A1" points="7.926,5.76 6.839,6.142 6.839,8.87 7.926,8.536 	"/>
	<polygon fill="#A3A1A1" points="7.926,8.787 6.839,9.12 6.839,11.906 7.926,11.63 	"/>
	<polygon fill="#A3A1A1" points="6.583,12.221 5.657,12.46 5.657,15.101 6.583,14.904 	"/>
	<polygon fill="#A3A1A1" points="6.583,9.198 5.657,9.483 5.657,12.21 6.583,11.972 	"/>
	<polygon fill="#A3A1A1" points="6.583,15.154 5.657,15.348 5.657,18.047 6.583,17.894 	"/>
	<polygon fill="#A3A1A1" points="6.583,6.234 5.657,6.562 5.657,9.234 6.583,8.95 	"/>
	<polygon fill="#A3A1A1" points="6.583,3.373 5.657,3.759 5.657,6.311 6.583,5.985 	"/>
	<polygon fill="#A3A1A1" points="5.397,12.525 4.353,12.794 4.353,15.374 5.397,15.153 	"/>
	<polygon fill="#A3A1A1" points="5.397,6.649 4.353,7.019 4.353,9.634 5.397,9.312 	"/>
	<polygon fill="#A3A1A1" points="5.397,15.404 4.353,15.623 4.353,18.26 5.397,18.089 	"/>
	<polygon fill="#A3A1A1" points="5.397,3.866 4.353,4.3 4.353,6.771 5.397,6.398 	"/>
	<polygon fill="#A3A1A1" points="5.397,9.562 4.353,9.882 4.353,12.543 5.397,12.277 	"/>
	<polygon fill="#A3A1A1" points="9.604,14.518 8.185,14.817 8.185,17.633 9.604,17.401 	"/>
	<path fill="#A3A1A1" d="M9.89,17.866l1.282,2.204l1.129-2.565L9.89,17.866z M10.548,17.933v0.737l-0.396-0.679L10.548,17.933z
		 M11.151,19.708l-0.119-0.206v-0.108c0-0.029-0.024-0.052-0.055-0.052c-0.012,0-0.021,0.003-0.033,0.012l-0.218-0.384v-1.062
		l0.201-0.03v1.067c0,0.028,0.021,0.055,0.05,0.055c0.031,0,0.055-0.026,0.055-0.055v-1.083l0.639-0.095v0.764L11.151,19.708z"/>
	<path fill="#A3A1A1" d="M3.5,21.026l7.436-0.789l-3.75-1.095L3.5,21.026z M5.397,20.24l0.26-0.131v0.523l-0.26,0.029V20.24z
		 M6.583,19.634l0.255-0.132v1.003l-0.255,0.029V19.634z M7.926,19.529l0.258,0.075v0.761l-0.258,0.027V19.529z M9.604,20.214V20.02
		l0.487,0.144L9.604,20.214z"/>
	<path fill="#A3A1A1" d="M15.222,17.989l-2.43-0.553l-0.258,0.035l-1.073,2.436L15.222,17.989z M12.839,17.616l0.061,0.142
		c0,0,0.312-0.014,0.624,0.011l0.407,0.092c0.006,0.032,0.053,0.303,0.268,0.463l-0.36,0.181c-0.38-0.331-0.843-0.531-1.343-0.54
		l0.016-0.035l0.21-0.093c0,0-0.043-0.136-0.069-0.217l0.132-0.021L12.839,17.616z"/>
	<path fill="#A3A1A1" d="M9.675,17.896l-0.078,0.011L7.444,19.01l3.476,1.015L9.675,17.896z M10.57,19.753L9.604,19.47v-1.375
		L10.57,19.753z M7.926,18.948l0.258-0.131v0.239l-0.258-0.074V18.948z"/>
	<path fill="#A3A1A1" d="M15.519,18.056l-4.183,2.139l9.261-0.982L15.519,18.056z M14.231,18.899l0.783-0.4
		c0.123,0.214,0.234,0.445,0.327,0.689c0.049,0.131,0.09,0.265,0.124,0.407l-0.834,0.086C14.528,19.394,14.395,19.131,14.231,18.899
		 M16.282,18.399l0.21,0.047c0.182,0.3,0.329,0.631,0.432,0.991l-0.159,0.016C16.651,19.069,16.486,18.714,16.282,18.399
		 M17.498,18.674l2.103,0.48l-1.867,0.199C17.671,19.119,17.592,18.894,17.498,18.674"/>
	<path fill="#A3A1A1" d="M9.479,20.776c-0.053,0-0.096,0.033-0.096,0.072c0,0.041,0.043,0.074,0.096,0.074
		c0.052,0,0.094-0.033,0.094-0.074C9.572,20.81,9.53,20.776,9.479,20.776"/>
	<path fill="#A3A1A1" d="M14.82,25.995c0.047-0.031,0.053-0.088,0.025-0.119c-0.025-0.035-0.082-0.039-0.123-0.004
		c-0.041,0.031-0.055,0.088-0.027,0.123C14.722,26.028,14.78,26.03,14.82,25.995"/>
	<path fill="#A3A1A1" d="M14.78,26.243c0.005,0.01,0.014,0.018,0.028,0.027c-0.015,0.035-0.004,0.078,0.023,0.111
		c0.041,0.059,0.12,0.068,0.167,0.027c0.058-0.041,0.064-0.117,0.021-0.174c-0.023-0.021-0.044-0.035-0.068-0.041
		c0-0.027-0.006-0.049-0.022-0.072c-0.032-0.041-0.094-0.049-0.135-0.018C14.751,26.138,14.744,26.2,14.78,26.243"/>
	<path fill="#A3A1A1" d="M9.759,22.917c-0.072,0.031-0.096,0.125-0.064,0.207c0.039,0.08,0.127,0.125,0.194,0.092
		c0.069-0.033,0.097-0.125,0.057-0.209C9.912,22.927,9.826,22.886,9.759,22.917"/>
	<path fill="#A3A1A1" d="M10.004,23.224C9.966,23.253,9.963,23.317,10,23.364c0.04,0.047,0.1,0.062,0.141,0.029
		c0.04-0.029,0.041-0.094,0.003-0.141C10.107,23.204,10.047,23.19,10.004,23.224"/>
	<path fill="#A3A1A1" d="M10.065,23.556c-0.046,0.037-0.035,0.125,0.022,0.195c0.058,0.076,0.137,0.107,0.185,0.072
		c0.045-0.035,0.035-0.123-0.022-0.199C10.192,23.552,10.108,23.522,10.065,23.556"/>
	<path fill="#A3A1A1" d="M11.301,24.212c0.033-0.023,0.033-0.074,0.002-0.113c-0.031-0.037-0.078-0.047-0.111-0.025
		c-0.03,0.025-0.03,0.074-0.002,0.113C11.225,24.224,11.27,24.235,11.301,24.212"/>
	<path fill="#A3A1A1" d="M11.767,24.229c0.027-0.023,0.027-0.066,0.004-0.1c-0.029-0.033-0.071-0.041-0.1-0.02
		c-0.025,0.02-0.025,0.066-0.003,0.1C11.693,24.241,11.736,24.247,11.767,24.229"/>
	<path fill="#A3A1A1" d="M12.955,24.819c0.022-0.018,0.02-0.059-0.004-0.09c-0.026-0.033-0.065-0.043-0.089-0.029
		c-0.022,0.02-0.017,0.061,0.008,0.094S12.933,24.837,12.955,24.819"/>
	<path fill="#A3A1A1" d="M13.833,25.12c0.018-0.012,0.021-0.037,0.004-0.057c-0.015-0.02-0.039-0.021-0.054-0.01
		c-0.017,0.014-0.022,0.041-0.006,0.059C13.792,25.128,13.816,25.136,13.833,25.12"/>
	<path fill="#A3A1A1" d="M13.477,25.253c0.058-0.059,0.039-0.164-0.035-0.234c-0.074-0.07-0.182-0.08-0.235-0.023
		c-0.053,0.061-0.041,0.164,0.034,0.234C13.317,25.298,13.423,25.312,13.477,25.253"/>
	<path fill="#A3A1A1" d="M11.067,21.286c0.033,0,0.062-0.021,0.062-0.045c0-0.029-0.029-0.049-0.062-0.049s-0.062,0.02-0.062,0.049
		C11.005,21.265,11.035,21.286,11.067,21.286"/>
	<path fill="#A3A1A1" d="M9.785,21.329c-0.024,0-0.044,0.018-0.044,0.035c0,0.021,0.021,0.037,0.044,0.037
		c0.025,0,0.047-0.016,0.047-0.037C9.833,21.347,9.81,21.329,9.785,21.329"/>
	<path fill="#A3A1A1" d="M11.636,21.253c0.028,0,0.056-0.018,0.056-0.043s-0.027-0.043-0.056-0.043
		c-0.029,0-0.053,0.018-0.053,0.043S11.607,21.253,11.636,21.253"/>
	<path fill="#A3A1A1" d="M12.342,21.866c0.041,0,0.073-0.023,0.073-0.057c0-0.029-0.033-0.055-0.073-0.055
		c-0.041,0-0.076,0.025-0.076,0.055C12.266,21.843,12.301,21.866,12.342,21.866"/>
	<path fill="#A3A1A1" d="M12.072,21.735c-0.006-0.004-0.01-0.006-0.015-0.006c-0.033,0-0.057,0.021-0.057,0.051
		s0.024,0.047,0.057,0.047c0.024,0,0.047-0.018,0.051-0.037c0.021-0.006,0.035-0.018,0.035-0.035s-0.017-0.035-0.039-0.035
		C12.09,21.72,12.08,21.726,12.072,21.735"/>
	<path fill="#A3A1A1" d="M12.019,21.534c0.033,0,0.063-0.02,0.063-0.043c0-0.029-0.03-0.049-0.063-0.049
		c-0.037,0-0.062,0.02-0.062,0.049C11.957,21.515,11.982,21.534,12.019,21.534"/>
	<path fill="#A3A1A1" d="M11.362,21.362c0.006,0.02,0.025,0.033,0.052,0.033c0.028,0,0.053-0.018,0.053-0.043
		c0-0.014-0.008-0.029-0.024-0.035c0,0,0-0.004,0-0.008c0-0.029-0.031-0.055-0.068-0.055c-0.038,0-0.071,0.025-0.071,0.055
		C11.303,21.337,11.33,21.356,11.362,21.362"/>
	<path fill="#A3A1A1" d="M10.649,21.169c0.028,0,0.054-0.021,0.054-0.049c0-0.025-0.026-0.047-0.054-0.047
		c-0.031,0-0.062,0.021-0.062,0.047C10.587,21.147,10.618,21.169,10.649,21.169"/>
	<path fill="#A3A1A1" d="M7.473,27.464c0.029,0,0.049-0.037,0.049-0.084c0-0.049-0.021-0.086-0.049-0.086
		c-0.027,0-0.051,0.037-0.051,0.086C7.421,27.427,7.446,27.464,7.473,27.464"/>
	<path fill="#A3A1A1" d="M7.838,28.228c0.042,0,0.072-0.037,0.072-0.084s-0.03-0.082-0.072-0.082c-0.037,0-0.067,0.035-0.067,0.082
		S7.802,28.228,7.838,28.228"/>
	<path fill="#A3A1A1" d="M8.034,28.228c0.02,0,0.038-0.029,0.038-0.061c0-0.037-0.018-0.064-0.038-0.064
		c-0.023,0-0.042,0.027-0.042,0.064C7.992,28.198,8.01,28.228,8.034,28.228"/>
	<path fill="#A3A1A1" d="M10.978,21.985c-0.029,0-0.05,0.023-0.05,0.057v0.092c0,0.031,0.021,0.055,0.05,0.055
		c0.031,0,0.055-0.023,0.055-0.055v-0.092C11.033,22.009,11.009,21.985,10.978,21.985"/>
	<path fill="#A3A1A1" d="M10.978,22.247c-0.029,0-0.05,0.021-0.05,0.053v0.047c0,0.029,0.021,0.055,0.05,0.055
		c0.031,0,0.055-0.025,0.055-0.055V22.3C11.033,22.269,11.009,22.247,10.978,22.247"/>
	<path fill="#A3A1A1" d="M10.978,22.464c-0.029,0-0.05,0.027-0.05,0.057v0.049c0,0.029,0.021,0.051,0.05,0.051
		c0.031,0,0.055-0.021,0.055-0.051v-0.049C11.033,22.491,11.009,22.464,10.978,22.464"/>
	<path fill="#A3A1A1" d="M10.978,16.824c0.031,0,0.055-0.024,0.055-0.053v-0.332c0-0.028-0.024-0.055-0.055-0.055
		c-0.029,0-0.05,0.026-0.05,0.055v0.332C10.927,16.799,10.949,16.824,10.978,16.824"/>
</g>
</svg>
