<?xml version="1.0" encoding="UTF-8"?>
<svg xmlns="http://www.w3.org/2000/svg" xmlns:xlink="http://www.w3.org/1999/xlink" width="40pt" height="40pt" viewBox="0 0 40 40" version="1.1">
<g id="surface3438033">
<path style=" stroke:none;fill-rule:nonzero;fill:rgb(80%,80%,80%);fill-opacity:1;" d="M 20 38.75 C 9.648438 38.75 1.25 30.351562 1.25 20 C 1.25 9.648438 9.648438 1.25 20 1.25 C 30.351562 1.25 38.75 9.648438 38.75 20 C 38.75 30.351562 30.351562 38.75 20 38.75 Z M 20 38.75 "/>
<path style=" stroke:none;fill-rule:nonzero;fill:rgb(100%,100%,100%);fill-opacity:1;" d="M 20 1.5 C 30.199219 1.5 38.5 9.800781 38.5 20 C 38.5 30.199219 30.199219 38.5 20 38.5 C 9.800781 38.5 1.5 30.199219 1.5 20 C 1.5 9.800781 9.800781 1.5 20 1.5 M 20 1 C 9.5 1 1 9.5 1 20 C 1 30.5 9.5 39 20 39 C 30.5 39 39 30.5 39 20 C 39 9.5 30.5 1 20 1 Z M 20 1 "/>
<path style=" stroke:none;fill-rule:nonzero;fill:rgb(100%,100%,100%);fill-opacity:1;" d="M 17 28 L 10.101562 21.101562 L 12.25 19 L 17 23.800781 L 29.101562 11.699219 L 31.25 13.800781 Z M 17 28 "/>
</g>
</svg>
