<?xml version="1.0" encoding="UTF-8"?>
<svg xmlns="http://www.w3.org/2000/svg" xmlns:xlink="http://www.w3.org/1999/xlink" width="26pt" height="26pt" viewBox="0 0 26 26" version="1.1">
<g id="surface3616775">
<path style=" stroke:none;fill-rule:nonzero;fill:rgb(43.921569%,10.980392%,27.058824%);fill-opacity:1;" d="M 0.0742188 13.074219 C 0.0742188 5.894531 5.894531 0.0742188 13.074219 0.0742188 C 20.253906 0.0742188 26.074219 5.894531 26.074219 13.074219 C 26.074219 20.253906 20.253906 26.074219 13.074219 26.074219 C 5.894531 26.074219 0.0742188 20.253906 0.0742188 13.074219 Z M 13.074219 25.035156 C 19.679688 25.035156 25.035156 19.679688 25.035156 13.074219 C 25.035156 6.46875 19.679688 1.113281 13.074219 1.113281 C 6.46875 1.113281 1.113281 6.46875 1.113281 13.074219 C 1.113281 19.679688 6.46875 25.035156 13.074219 25.035156 Z M 13.074219 25.035156 "/>
<path style=" stroke:none;fill-rule:nonzero;fill:rgb(43.921569%,10.980392%,27.058824%);fill-opacity:1;" d="M 5.011719 20.179688 C 5.011719 20.179688 5.011719 19.101562 5.011719 18.957031 C 5.011719 17.375 7.386719 15.933594 9.980469 15.425781 C 9.980469 15.425781 10.773438 14.996094 10.554688 14.203125 C 9.761719 13.199219 9.546875 12.117188 9.546875 12.117188 C 9.402344 12.042969 9.1875 11.902344 9.042969 11.757812 C 8.828125 11.46875 8.539062 10.605469 8.613281 9.957031 C 8.683594 9.378906 8.828125 9.597656 8.898438 9.453125 C 8.324219 8.15625 8.613281 6.5 9.261719 5.277344 C 10.625 2.902344 13.507812 3.621094 13.941406 4.484375 C 16.675781 3.980469 16.601562 8.300781 16.171875 9.378906 C 16.171875 9.378906 16.386719 9.453125 16.386719 10.460938 C 16.316406 11.539062 15.453125 12.1875 15.453125 12.1875 C 15.453125 12.476562 15.09375 13.339844 14.515625 14.132812 C 14.011719 15.140625 15.019531 15.355469 15.019531 15.355469 C 17.613281 15.859375 19.988281 17.300781 19.988281 18.882812 C 19.988281 19.027344 19.988281 20.109375 19.988281 20.109375 C 19.988281 21.117188 16.101562 22.199219 12.5 22.199219 C 8.972656 22.199219 5.011719 21.835938 5.011719 20.179688 Z M 5.011719 20.179688 "/>
</g>
</svg>
