<?xml version="1.0" encoding="UTF-8"?>
<svg xmlns="http://www.w3.org/2000/svg" xmlns:xlink="http://www.w3.org/1999/xlink" width="64pt" height="64pt" viewBox="0 0 64 64" version="1.1">
<g id="surface1848854">
<path style=" stroke:none;fill-rule:nonzero;fill:rgb(100%,100%,100%);fill-opacity:1;" d="M 54.851562 55 L 9.101562 55 C 6.550781 55 4.5 52.949219 4.5 50.398438 L 4.5 11.300781 C 4.5 10.050781 5.550781 9 6.800781 9 L 48 9 C 49.25 9 50.300781 10.050781 50.300781 11.300781 L 50.300781 50.449219 C 50.300781 52.949219 52.351562 55 54.851562 55 C 57.398438 55 59.449219 52.949219 59.449219 50.398438 L 59.449219 25.101562 C 59.449219 23.851562 58.398438 22.800781 57.148438 22.800781 L 54.851562 22.800781 "/>
<path style=" stroke:none;fill-rule:nonzero;fill:rgb(90.588235%,29.803922%,23.529412%);fill-opacity:1;" d="M 11.5 15.949219 L 43.050781 15.949219 C 43.898438 15.949219 44.550781 16.601562 44.550781 17.449219 L 44.550781 25.898438 C 44.550781 26.75 43.898438 27.398438 43.050781 27.398438 L 11.5 27.398438 C 10.648438 27.398438 10 26.75 10 25.898438 L 10 17.449219 C 10 16.601562 10.648438 15.949219 11.5 15.949219 Z M 54.851562 55 C 57.398438 55 59.449219 52.949219 59.449219 50.398438 L 59.449219 25.101562 C 59.449219 23.851562 58.398438 22.800781 57.148438 22.800781 L 50.25 22.800781 L 50.25 50.398438 C 50.300781 52.949219 52.351562 55 54.851562 55 Z M 54.851562 55 "/>
<path style=" stroke:none;fill-rule:nonzero;fill:rgb(75.294118%,22.352941%,16.862745%);fill-opacity:1;" d="M 54.851562 56.5 L 9.101562 56.5 C 5.75 56.5 3 53.75 3 50.398438 L 3 11.300781 C 3 9.199219 4.699219 7.5 6.800781 7.5 L 48 7.5 C 50.101562 7.5 51.800781 9.199219 51.800781 11.300781 L 51.800781 50.449219 C 51.800781 52.148438 53.199219 53.550781 54.898438 53.550781 C 56.601562 53.550781 58 52.148438 58 50.449219 L 58 25.101562 C 58 24.648438 57.648438 24.300781 57.199219 24.300781 L 54.898438 24.300781 C 54.050781 24.300781 53.398438 23.648438 53.398438 22.800781 C 53.398438 21.949219 54.050781 21.300781 54.898438 21.300781 L 57.199219 21.300781 C 59.300781 21.300781 61 23 61 25.101562 L 61 50.398438 C 60.949219 53.800781 58.199219 56.5 54.851562 56.5 Z M 6.800781 10.5 C 6.351562 10.5 6 10.851562 6 11.300781 L 6 50.449219 C 6 52.148438 7.398438 53.550781 9.101562 53.550781 L 49.648438 53.550781 C 49.101562 52.648438 48.800781 51.601562 48.800781 50.449219 L 48.800781 11.300781 C 48.800781 10.851562 48.449219 10.5 48 10.5 Z M 6.800781 10.5 "/>
<path style=" stroke:none;fill-rule:nonzero;fill:rgb(90.588235%,29.803922%,23.529412%);fill-opacity:1;" d="M 20.601562 36.449219 L 11.5 36.449219 C 10.648438 36.449219 10 35.800781 10 34.949219 C 10 34.101562 10.648438 33.449219 11.5 33.449219 L 20.601562 33.449219 C 21.449219 33.449219 22.101562 34.101562 22.101562 34.949219 C 22.101562 35.800781 21.449219 36.449219 20.601562 36.449219 Z M 20.601562 49.351562 L 11.5 49.351562 C 10.648438 49.351562 10 48.699219 10 47.851562 C 10 47 10.648438 46.351562 11.5 46.351562 L 20.601562 46.351562 C 21.449219 46.351562 22.101562 47 22.101562 47.851562 C 22.101562 48.699219 21.449219 49.351562 20.601562 49.351562 Z M 20.601562 42.851562 L 11.5 42.851562 C 10.648438 42.851562 10 42.199219 10 41.351562 C 10 40.5 10.648438 39.851562 11.5 39.851562 L 20.601562 39.851562 C 21.449219 39.851562 22.101562 40.5 22.101562 41.351562 C 22.101562 42.199219 21.449219 42.851562 20.601562 42.851562 Z M 20.601562 42.851562 "/>
<path style=" stroke:none;fill-rule:nonzero;fill:rgb(75.294118%,22.352941%,16.862745%);fill-opacity:1;" d="M 43 49.550781 L 29 49.550781 C 28.148438 49.550781 27.5 48.898438 27.5 48.050781 L 27.5 34.300781 C 27.5 33.449219 28.148438 32.800781 29 32.800781 L 43 32.800781 C 43.851562 32.800781 44.5 33.449219 44.5 34.300781 L 44.5 48.050781 C 44.5 48.851562 43.851562 49.550781 43 49.550781 Z M 30.5 46.550781 L 41.5 46.550781 L 41.5 35.800781 L 30.5 35.800781 Z M 30.5 46.550781 "/>
</g>
</svg>
